<?xml version="1.0"?>
<svg xmlns="http://www.w3.org/2000/svg" xmlns:xlink="http://www.w3.org/1999/xlink" xmlns:svgjs="http://svgjs.com/svgjs" version="1.1" width="512" height="512" x="0" y="0" viewBox="0 0 512 512" style="enable-background:new 0 0 512 512" xml:space="preserve" class=""><g><g xmlns="http://www.w3.org/2000/svg"><path d="m343.69 45.72h-11.882c-7.705-7.083-17.976-11.417-29.243-11.417h-13.548c-10.076-20.2-30.523-32.99-53.425-32.99-22.901 0-43.349 12.79-53.425 32.99h-13.547c-11.269 0-21.542 4.335-29.248 11.421h-11.868c-35.648 0-64.65 29.002-64.65 64.65v12.944c-35.28 3.758-62.854 33.691-62.854 69.95s27.574 66.192 62.853 69.948v104.811c0 35.654 29.002 64.661 64.65 64.661h120.965c-.273 2.513-.423 5.062-.423 7.646 0 38.792 31.56 70.353 70.352 70.353s70.352-31.56 70.352-70.353c0-7.898-1.328-15.487-3.739-22.58 14.706-12.232 23.329-30.414 23.329-49.724v-211.05c0-4.142-3.358-7.5-7.5-7.5s-7.5 3.358-7.5 7.5v211.05c0 13.493-5.495 26.261-14.994 35.533-12.392-20.129-34.626-33.582-59.949-33.582-30.87 0-57.141 19.995-66.591 47.707h-124.302c-27.377 0-49.65-22.278-49.65-49.661v-104.811c35.278-3.757 62.852-33.69 62.852-69.948s-27.573-66.191-62.852-69.948v-12.944c0-27.377 22.273-49.65 49.65-49.65h1.272c-2.195 5.177-3.41 10.866-3.41 16.833 0 23.851 19.404 43.255 43.255 43.255h133.946c23.851 0 43.254-19.404 43.254-43.255 0-5.97-1.216-11.66-3.412-16.838h1.283c27.377 0 49.65 22.277 49.65 49.66v16.619c0 4.142 3.358 7.5 7.5 7.5s7.5-3.358 7.5-7.5v-16.62c-.001-35.653-29.003-64.66-64.651-64.66zm-25.293 339.261c30.521 0 55.352 24.831 55.352 55.352s-24.831 55.353-55.352 55.353-55.352-24.831-55.352-55.353c0-30.521 24.831-55.352 55.352-55.352zm-192.692-191.713c0 30.521-24.831 55.353-55.353 55.353-30.521-.001-55.352-24.832-55.352-55.353s24.831-55.352 55.352-55.352c30.522 0 55.353 24.831 55.353 55.352zm176.86-87.454h-133.945c-15.58 0-28.255-12.675-28.255-28.255s12.675-28.255 28.255-28.255h18.404c3.074 0 5.837-1.876 6.971-4.733 6.813-17.166 23.141-28.257 41.597-28.257 18.457 0 34.785 11.091 41.598 28.257 1.134 2.857 3.897 4.733 6.971 4.733h18.404c15.58 0 28.254 12.675 28.254 28.255s-12.674 28.255-28.254 28.255z" fill="#4078fc" data-original="#000000" style="" class=""/><path d="m235.592 32.185c-15.924 0-28.878 12.955-28.878 28.879s12.955 28.878 28.878 28.878 28.878-12.955 28.878-28.878-12.954-28.879-28.878-28.879zm0 42.757c-7.653 0-13.878-6.226-13.878-13.878s6.226-13.879 13.878-13.879 13.878 6.226 13.878 13.879-6.225 13.878-13.878 13.878z" fill="#4078fc" data-original="#000000" style="" class=""/><path d="m50.809 160.861c0 4.142 3.358 7.5 7.5 7.5h6.489v57.949c0 4.142 3.358 7.5 7.5 7.5s7.5-3.358 7.5-7.5v-65.449c0-4.142-3.358-7.5-7.5-7.5h-13.989c-4.142 0-7.5 3.358-7.5 7.5z" fill="#4078fc" data-original="#000000" style="" class=""/><path d="m216.561 304.408c.197-1.081.482-3.13.517-4.225 0-13.37-10.877-24.248-24.247-24.248-11.56 0-21.566 8.225-23.792 19.556-.798 4.064 1.849 8.007 5.914 8.805 4.063.795 8.006-1.849 8.805-5.914.848-4.315 4.664-7.447 9.073-7.447 4.962 0 9.024 3.929 9.238 8.84l-.202 1.58c-.815 3.222-2.737 7.011-5.716 11.268-10.366 14.811-16.552 22.91-19.875 27.262-4.117 5.391-5.997 7.852-4.719 12.004.75 2.441 2.599 4.313 5.07 5.138 1 .333 1.961.654 14.68.654 4.995 0 11.803-.049 21.139-.167 4.142-.052 7.457-3.452 7.405-7.594s-3.443-7.465-7.594-7.405c-6.55.083-13.499.137-19.273.148 3.629-4.854 8.664-11.735 15.456-21.44 4.189-5.984 6.921-11.642 8.121-16.815z" fill="#4078fc" data-original="#000000" style="" class=""/><path d="m149.582 361.525c-2.565 3.252-2.008 7.968 1.244 10.534 12.517 9.873 27.574 15.091 43.545 15.091 38.796 0 70.36-31.559 70.36-70.35s-31.563-70.35-70.36-70.35c-38.791 0-70.35 31.559-70.35 70.35 0 10.265 2.167 20.167 6.439 29.431 1.734 3.761 6.189 5.404 9.952 3.669 3.761-1.735 5.404-6.19 3.669-9.952-3.358-7.28-5.061-15.068-5.061-23.149 0-30.52 24.83-55.35 55.35-55.35 30.525 0 55.36 24.83 55.36 55.35s-24.834 55.35-55.36 55.35c-12.566 0-24.412-4.104-34.255-11.869-3.252-2.564-7.968-2.007-10.533 1.245z" fill="#4078fc" data-original="#000000" style="" class=""/><path d="m318.78 467.281c-4.588 0-8.525-3.417-9.157-7.947-.06-.427-.09-.864-.09-1.3 0-4.142-3.358-7.5-7.5-7.5s-7.5 3.358-7.5 7.5c0 1.126.079 2.261.233 3.373 1.661 11.9 11.984 20.875 24.014 20.875 13.37 0 24.247-10.877 24.247-24.247 0-6.489-2.562-12.391-6.728-16.747 4.166-4.356 6.728-10.258 6.728-16.747 0-13.37-10.877-24.247-24.247-24.247-11.561 0-21.567 8.224-23.792 19.556-.798 4.064 1.85 8.006 5.914 8.805 4.064.797 8.007-1.85 8.805-5.914.847-4.315 4.663-7.446 9.073-7.446 5.099 0 9.247 4.148 9.247 9.247s-4.148 9.247-9.247 9.247c-4.142 0-7.5 3.358-7.5 7.5s3.358 7.5 7.5 7.5c5.099 0 9.247 4.148 9.247 9.247s-4.149 9.245-9.247 9.245z" fill="#4078fc" data-original="#000000" style="" class=""/><path d="m300.466 174.312c0-4.142-3.358-7.5-7.5-7.5h-116.568c-4.142 0-7.5 3.358-7.5 7.5s3.358 7.5 7.5 7.5h116.568c4.142 0 7.5-3.358 7.5-7.5z" fill="#4078fc" data-original="#000000" style="" class=""/><path d="m254.182 219.724c4.142 0 7.5-3.358 7.5-7.5s-3.358-7.5-7.5-7.5h-77.784c-4.142 0-7.5 3.358-7.5 7.5s3.358 7.5 7.5 7.5z" fill="#4078fc" data-original="#000000" style="" class=""/><path d="m381.022 297.845c0-4.142-3.358-7.5-7.5-7.5h-93.558c-4.142 0-7.5 3.358-7.5 7.5s3.358 7.5 7.5 7.5h93.558c4.142 0 7.5-3.358 7.5-7.5z" fill="#4078fc" data-original="#000000" style="" class=""/><path d="m279.964 328.257c-4.142 0-7.5 3.358-7.5 7.5s3.358 7.5 7.5 7.5h54.774c4.142 0 7.5-3.358 7.5-7.5s-3.358-7.5-7.5-7.5z" fill="#4078fc" data-original="#000000" style="" class=""/><path d="m504.5 413.878h-87.773c-4.142 0-7.5 3.358-7.5 7.5s3.358 7.5 7.5 7.5h87.773c4.142 0 7.5-3.358 7.5-7.5s-3.358-7.5-7.5-7.5z" fill="#4078fc" data-original="#000000" style="" class=""/><path d="m465.716 451.789h-48.99c-4.142 0-7.5 3.358-7.5 7.5s3.358 7.5 7.5 7.5h48.99c4.142 0 7.5-3.358 7.5-7.5s-3.358-7.5-7.5-7.5z" fill="#4078fc" data-original="#000000" style="" class=""/></g></g></svg>
