<?xml version="1.0"?>
<svg xmlns="http://www.w3.org/2000/svg" xmlns:xlink="http://www.w3.org/1999/xlink" xmlns:svgjs="http://svgjs.com/svgjs" version="1.1" width="512" height="512" x="0" y="0" viewBox="0 0 512 512" style="enable-background:new 0 0 512 512" xml:space="preserve" class=""><g><g xmlns="http://www.w3.org/2000/svg"><g><g><path d="m460.525 184.246h-127.91v-140.369c0-24.194-19.683-43.877-43.877-43.877h-243.607c-24.194 0-43.877 19.683-43.877 43.877v100.794c0 4.123 3.342 7.465 7.465 7.465s7.465-3.342 7.465-7.465v-100.794c0-15.961 12.985-28.947 28.947-28.947h243.607c15.962 0 28.947 12.986 28.947 28.947v148.498c0 15.961-12.985 28.946-28.947 28.946h-167.962c-3.162 0-6.231 1.128-8.64 3.176l-47.108 40.042v-29.878c0-7.356-5.985-13.34-13.34-13.34h-6.556c-15.962 0-28.947-12.985-28.947-28.946v-13.369c0-4.123-3.342-7.465-7.465-7.465s-7.465 3.342-7.465 7.465v13.369c0 24.194 19.684 43.877 43.877 43.877h4.966v31.726c0 5.261 2.967 9.901 7.741 12.109 1.82.841 3.737 1.254 5.637 1.253 3.085 0 6.121-1.089 8.602-3.198l49.284-41.891h37.505v172.585c0 27.692 22.529 50.221 50.221 50.221h162.406l58.234 49.498c2.672 2.271 5.94 3.444 9.262 3.443 2.045 0 4.111-.444 6.069-1.35 5.141-2.377 8.335-7.373 8.335-13.037v-38.554h7.132c27.692 0 50.222-22.529 50.222-50.221v-174.37c-.002-27.691-22.531-50.22-50.223-50.22zm35.291 224.591c0 19.459-15.831 35.291-35.291 35.291h-7.698c-7.92 0-14.364 6.444-14.364 14.364v37.896l-57.46-48.841c-2.594-2.205-5.898-3.419-9.302-3.419h-162.615c-19.459 0-35.29-15.831-35.29-35.291v-172.585h114.942c21.881 0 40.069-16.1 43.348-37.075h128.439c19.46 0 35.291 15.831 35.291 35.291z" fill="#4078fc" data-original="#000000" style="" class=""/><path d="m205.472 51.474-57.564 71.166-23.091-22.869c-11.289-11.845-30.108-12.347-42.015-1.099-11.938 11.278-12.475 30.167-1.197 42.106.035.036.07.072.105.108l47.294 48.083c5.598 5.893 13.464 9.272 21.594 9.272.595 0 1.194-.017 1.783-.053 8.777-.526 16.816-4.861 22.077-11.9l78.637-99.029c.052-.066.104-.133.154-.2 9.773-13.2 6.985-31.89-6.214-41.662-13.153-9.741-31.762-7.005-41.563 6.077zm35.845 26.609-78.623 99.011c-.052.066-.104.132-.154.2-2.624 3.543-6.652 5.726-11.06 5.99-4.377.263-8.682-1.457-11.678-4.627-.035-.036-.07-.072-.105-.108l-47.285-48.074c-5.577-5.957-5.294-15.34.644-20.95 5.953-5.624 15.375-5.359 21 .596.057.06.115.119.174.177l29.038 28.759c1.499 1.485 3.54 2.261 5.664 2.15 2.106-.116 4.066-1.119 5.393-2.759l62.85-77.7c.067-.083.132-.167.195-.253 4.877-6.584 14.195-7.973 20.78-3.1 6.552 4.852 7.96 14.11 3.167 20.688z" fill="#4078fc" data-original="#000000" style="" class=""/><path d="m411.817 289.841h-42.621c3.838-15.454 5.373-29.769 4.567-42.582-.742-11.777-10.557-21.003-22.347-21.003h-1.494c-11.522 0-20.896 9.374-20.896 20.897 0 .233.011.466.033.697.024.261 2.117 26.31-26.067 48.297-3.818 2.978-7.545 5.661-10.694 7.841-2.255-2.612-5.581-4.275-9.295-4.275h-35.483c-6.775 0-12.286 5.511-12.286 12.286v9.653c0 4.123 3.342 7.465 7.465 7.465s7.465-3.342 7.465-7.465v-7.008h30.161c-.084.448.032 77.602.032 77.602h-30.193v-36.451c0-4.123-3.342-7.465-7.465-7.465s-7.465 3.342-7.465 7.465v39.095c0 6.775 5.511 12.286 12.286 12.286h35.481c4.304 0 8.091-2.229 10.286-5.588l4.049 2.515c12.201 7.579 22.155 12.944 39.218 12.944h64.378c11.855 0 21.5-9.645 21.5-21.5 0-3.019-.632-5.891-1.76-8.501 7.444-3.383 12.644-10.872 12.644-19.568 0-5.364-1.988-10.264-5.249-14.035 3.261-3.77 5.249-8.67 5.249-14.035 0-5.364-1.988-10.264-5.249-14.034 3.261-3.77 5.249-8.67 5.249-14.034.001-11.854-9.645-21.499-21.499-21.499zm-33.362 42.999h33.362c3.623 0 6.57 2.947 6.57 6.569s-2.947 6.569-6.57 6.569h-33.362c-4.123 0-7.465 3.342-7.465 7.465s3.342 7.465 7.465 7.465h33.362c3.623 0 6.57 2.947 6.57 6.569s-2.947 6.569-6.57 6.569h-33.362c-4.123 0-7.465 3.342-7.465 7.465s3.342 7.465 7.465 7.465h22.478c3.623 0 6.57 2.947 6.57 6.569s-2.947 6.569-6.57 6.569h-64.378c-12.728 0-19.635-3.425-31.34-10.697l-9.927-6.167v-65.27c3.838-2.517 10.183-6.835 16.887-12.065 32.725-25.529 32.058-56.572 31.784-60.979.113-3.192 2.744-5.753 5.962-5.753h1.494c3.928 0 7.199 3.079 7.446 7.011.513 8.141.118 21.708-4.679 40.106-1.035 3.968-.19 8.106 2.319 11.353 2.512 3.25 6.308 5.115 10.414 5.115h44.902c3.623 0 6.57 2.947 6.57 6.569s-2.947 6.569-6.57 6.569h-33.362c-4.123 0-7.465 3.342-7.465 7.465 0 4.127 3.341 7.469 7.465 7.469z" fill="#4078fc" data-original="#000000" style="" class=""/></g></g></g></g></svg>
