<?xml version="1.0"?>
<svg xmlns="http://www.w3.org/2000/svg" xmlns:xlink="http://www.w3.org/1999/xlink" xmlns:svgjs="http://svgjs.com/svgjs" version="1.1" width="512" height="512" x="0" y="0" viewBox="0 0 24 24" style="enable-background:new 0 0 512 512" xml:space="preserve" class=""><g><path xmlns="http://www.w3.org/2000/svg" d="m21.5 12h-10c-1.378 0-2.5-1.121-2.5-2.5v-5c0-1.379 1.122-2.5 2.5-2.5h10c1.378 0 2.5 1.121 2.5 2.5v5c0 1.379-1.122 2.5-2.5 2.5zm-10-9c-.827 0-1.5.673-1.5 1.5v5c0 .827.673 1.5 1.5 1.5h10c.827 0 1.5-.673 1.5-1.5v-5c0-.827-.673-1.5-1.5-1.5z" fill="#4078fc" data-original="#000000" style=""/><path xmlns="http://www.w3.org/2000/svg" d="m23.5 6h-14c-.276 0-.5-.224-.5-.5s.224-.5.5-.5h14c.276 0 .5.224.5.5s-.224.5-.5.5z" fill="#4078fc" data-original="#000000" style=""/><path xmlns="http://www.w3.org/2000/svg" d="m23.5 22h-23c-.276 0-.5-.224-.5-.5s.224-.5.5-.5h23c.276 0 .5.224.5.5s-.224.5-.5.5z" fill="#4078fc" data-original="#000000" style=""/><path xmlns="http://www.w3.org/2000/svg" d="m21.5 22c-.276 0-.5-.224-.5-.5v-7c0-.276.224-.5.5-.5s.5.224.5.5v7c0 .276-.224.5-.5.5z" fill="#4078fc" data-original="#000000" style=""/><path xmlns="http://www.w3.org/2000/svg" d="m2.5 22c-.276 0-.5-.224-.5-.5v-11.5c0-1.103.897-2 2-2h2.5c.276 0 .5.224.5.5s-.224.5-.5.5h-2.5c-.551 0-1 .448-1 1v11.5c0 .276-.224.5-.5.5z" fill="#4078fc" data-original="#000000" style=""/></g></svg>
