<?xml version="1.0"?>
<svg xmlns="http://www.w3.org/2000/svg" xmlns:xlink="http://www.w3.org/1999/xlink" xmlns:svgjs="http://svgjs.com/svgjs" version="1.1" width="512" height="512" x="0" y="0" viewBox="0 0 512 512" style="enable-background:new 0 0 512 512" xml:space="preserve" class=""><g><g xmlns="http://www.w3.org/2000/svg"><path d="m82.752 305.992h-59.786c-12.663 0-22.966 10.302-22.966 22.966v161.027c0 4.142 3.357 7.5 7.5 7.5s7.5-3.358 7.5-7.5v-161.027c0-4.393 3.573-7.966 7.966-7.966h59.786c4.393 0 7.966 3.573 7.966 7.966v161.027c0 4.142 3.357 7.5 7.5 7.5s7.5-3.358 7.5-7.5v-161.027c0-12.664-10.303-22.966-22.966-22.966z" fill="#4078fc" data-original="#000000" style="" class=""/><path d="m218.18 205.793h-59.786c-12.663 0-22.966 10.302-22.966 22.966v68.595c0 4.142 3.357 7.5 7.5 7.5s7.5-3.358 7.5-7.5v-68.595c0-4.393 3.573-7.966 7.966-7.966h59.786c4.393 0 7.966 3.573 7.966 7.966v261.226c0 4.142 3.357 7.5 7.5 7.5s7.5-3.358 7.5-7.5v-261.226c0-12.663-10.303-22.966-22.966-22.966z" fill="#4078fc" data-original="#000000" style="" class=""/><path d="m142.928 325.119c-4.143 0-7.5 3.358-7.5 7.5v157.367c0 4.142 3.357 7.5 7.5 7.5s7.5-3.358 7.5-7.5v-157.367c0-4.142-3.358-7.5-7.5-7.5z" fill="#4078fc" data-original="#000000" style="" class=""/><path d="m353.606 267.311h-59.786c-12.663 0-22.966 10.302-22.966 22.966v199.709c0 4.142 3.357 7.5 7.5 7.5s7.5-3.358 7.5-7.5v-199.71c0-4.393 3.573-7.966 7.966-7.966h59.786c4.393 0 7.966 3.573 7.966 7.966v199.709c0 4.142 3.357 7.5 7.5 7.5s7.5-3.358 7.5-7.5v-199.709c0-12.663-10.302-22.965-22.966-22.965z" fill="#4078fc" data-original="#000000" style="" class=""/><path d="m489.034 135.25h-59.786c-12.663 0-22.966 10.302-22.966 22.966v331.769c0 4.142 3.357 7.5 7.5 7.5s7.5-3.358 7.5-7.5v-331.769c0-4.393 3.573-7.966 7.966-7.966h59.786c4.393 0 7.966 3.573 7.966 7.966v331.769c0 4.142 3.357 7.5 7.5 7.5s7.5-3.358 7.5-7.5v-331.769c0-12.663-10.303-22.966-22.966-22.966z" fill="#4078fc" data-original="#000000" style="" class=""/><path d="m52.858 242.743c14.732 0 26.719-11.986 26.719-26.718 0-4.118-.938-8.02-2.609-11.506l88.103-78.884c6.468 4.878 14.509 7.775 23.215 7.775 13.031 0 24.567-6.491 31.568-16.403l77.385 34.388c-2.339 15.056 10.532 30.523 26.475 30.271 14.732 0 26.718-11.986 26.718-26.718s-11.985-26.718-26.718-26.718c-8.158 0-15.47 3.68-20.375 9.462l-77.38-34.386c.621-2.746.961-5.598.961-8.529 0-21.302-17.331-38.633-38.634-38.633s-38.634 17.331-38.634 38.633c0 7.186 1.979 13.917 5.41 19.686l-88.102 78.883c-4.096-2.556-8.928-4.039-14.102-4.039-14.732 0-26.718 11.985-26.718 26.718s11.986 26.718 26.718 26.718zm270.856-99.514c6.461 0 11.718 5.257 11.718 11.718s-5.257 11.718-11.718 11.718c-6.462 0-11.719-5.257-11.719-11.718s5.257-11.718 11.719-11.718zm-135.428-72.087c13.031 0 23.634 10.602 23.634 23.633 0 13.032-10.603 23.634-23.634 23.634s-23.634-10.602-23.634-23.634c0-13.031 10.603-23.633 23.634-23.633zm-135.428 133.165c6.462 0 11.719 5.256 11.719 11.718s-5.257 11.718-11.719 11.718c-6.461 0-11.718-5.257-11.718-11.718s5.257-11.718 11.718-11.718z" fill="#4078fc" data-original="#000000" style="" class=""/><path d="m365.438 127.423c1.702 0 3.414-.576 4.819-1.757l74.076-62.208c4.241 2.835 9.334 4.492 14.808 4.492 14.732 0 26.718-11.985 26.718-26.718s-11.985-26.718-26.718-26.718-26.718 11.986-26.718 26.719c0 3.82.812 7.452 2.262 10.741l-74.074 62.206c-3.172 2.664-3.584 7.395-.92 10.566 1.484 1.767 3.608 2.677 5.747 2.677zm93.704-97.908c6.461 0 11.718 5.257 11.718 11.718s-5.257 11.718-11.718 11.718c-6.462 0-11.719-5.256-11.719-11.718s5.257-11.718 11.719-11.718z" fill="#4078fc" data-original="#000000" style="" class=""/><path d="m177.699 430.738c-4.143 0-7.5 3.358-7.5 7.5v51.748c0 4.142 3.357 7.5 7.5 7.5s7.5-3.358 7.5-7.5v-51.748c0-4.142-3.357-7.5-7.5-7.5z" fill="#4078fc" data-original="#000000" style="" class=""/><path d="m42.172 430.738c-4.143 0-7.5 3.358-7.5 7.5v51.748c0 4.142 3.357 7.5 7.5 7.5s7.5-3.358 7.5-7.5v-51.748c0-4.142-3.358-7.5-7.5-7.5z" fill="#4078fc" data-original="#000000" style="" class=""/><path d="m448.479 430.738c-4.143 0-7.5 3.358-7.5 7.5v51.748c0 4.142 3.357 7.5 7.5 7.5s7.5-3.358 7.5-7.5v-51.748c0-4.142-3.358-7.5-7.5-7.5z" fill="#4078fc" data-original="#000000" style="" class=""/><path d="m312.951 430.738c-4.143 0-7.5 3.358-7.5 7.5v51.748c0 4.142 3.357 7.5 7.5 7.5s7.5-3.358 7.5-7.5v-51.748c0-4.142-3.357-7.5-7.5-7.5z" fill="#4078fc" data-original="#000000" style="" class=""/></g></g></svg>
