<?xml version="1.0"?>
<svg xmlns="http://www.w3.org/2000/svg" xmlns:xlink="http://www.w3.org/1999/xlink" xmlns:svgjs="http://svgjs.com/svgjs" version="1.1" width="512" height="512" x="0" y="0" viewBox="0 0 511.998 511.998" style="enable-background:new 0 0 512 512" xml:space="preserve" class=""><g><g xmlns="http://www.w3.org/2000/svg"><path d="m266.109 252.254c-6.612-2.337-13.924-5.159-18.015-8.368-1.241-.974-1.774-3.225-1.327-5.602.225-1.192 1.274-5.177 5.34-6.402 7.688-2.315 12.733 1.632 13.283 2.089 3.183 2.647 7.913 2.216 10.562-.968s2.217-7.913-.968-10.562c-1.154-.96-5.331-4.128-11.678-5.568v-2.826c0-4.142-3.357-7.5-7.5-7.5-4.142 0-7.5 3.358-7.5 7.5v3.326c-.176.05-.349.093-.525.146-8.086 2.436-14.123 9.328-15.754 17.987-1.503 7.976 1.106 15.709 6.81 20.182 4.673 3.665 11.126 6.768 22.273 10.708 7.284 2.575 7.128 8.465 6.722 10.878-.825 4.911-4.956 10.218-12.076 10.265-7.046.043-9.229-.301-14.629-3.833-3.467-2.268-8.115-1.296-10.382 2.17-2.268 3.466-1.296 8.115 2.17 10.382 5.839 3.82 10.161 5.39 15.391 5.973v3.19c0 4.142 3.358 7.5 7.5 7.5 4.143 0 7.5-3.358 7.5-7.5v-3.932c10.827-3.076 17.76-12.464 19.318-21.729 2.057-12.233-4.58-23.287-16.515-27.506z" fill="#4078fc" data-original="#000000" style="" class=""/><path d="m435.307 358.626c-18.447 0-35.391 6.549-48.636 17.439l-58.708-58.708c11.237-13.956 18.492-31.243 20.021-50.126h42.359c3.592 21.867 22.615 38.605 45.482 38.605 25.421 0 46.102-20.681 46.102-46.101s-20.681-46.102-46.102-46.102c-22.864 0-41.885 16.735-45.48 38.598h-42.361c-1.682-20.742-10.269-39.561-23.455-54.149l76.796-76.796c9.546 7.402 21.514 11.825 34.501 11.825 31.111 0 56.423-25.311 56.423-56.422s-25.312-56.422-56.423-56.422-56.422 25.311-56.422 56.422c0 12.727 4.24 24.479 11.375 33.929l-77.183 77.182c-13.905-11.106-31.086-18.273-49.84-19.793v-50.481c19.326-3.542 34.021-20.5 34.021-40.839 0-22.894-18.626-41.52-41.521-41.52-15.932 0-30.648 9.29-37.492 23.667-1.78 3.74-.191 8.215 3.548 9.996 3.742 1.78 8.215.191 9.996-3.548 4.37-9.181 13.771-15.114 23.948-15.114 14.623 0 26.521 11.897 26.521 26.52 0 14.629-11.897 26.53-26.521 26.53-10.174 0-19.575-5.937-23.948-15.124-1.781-3.739-6.254-5.328-9.996-3.548-3.74 1.78-5.329 6.255-3.548 9.996 5.754 12.087 17.072 20.555 29.991 22.958v50.508c-18.882 1.53-36.168 8.785-50.123 20.021l-62.703-62.703c10.893-13.245 17.443-30.19 17.443-48.637 0-42.285-34.402-76.687-76.687-76.687s-76.685 34.401-76.685 76.686 34.401 76.687 76.687 76.687c18.447 0 35.392-6.55 48.637-17.443l62.421 62.42c-13.05 14.551-21.544 33.265-23.216 53.879h-66.235c-3.268-11.393-13.773-19.757-26.202-19.757-15.031 0-27.26 12.229-27.26 27.261 0 15.031 12.229 27.26 27.26 27.26 12.432 0 22.939-8.368 26.204-19.764h66.231c1.519 18.756 8.686 35.938 19.794 49.844l-48.538 48.538c-2.929 2.929-2.929 7.678 0 10.606 1.464 1.464 3.384 2.197 5.303 2.197s3.839-.732 5.303-2.197l48.212-48.212c14.59 13.188 33.41 21.775 54.154 23.456v27.938c-27.576 3.681-48.922 27.341-48.922 55.909 0 31.111 25.311 56.422 56.422 56.422s56.423-25.311 56.423-56.422c0-28.567-21.346-52.228-48.923-55.909v-27.938c20.616-1.671 39.331-10.165 53.883-23.216l58.424 58.424c-10.894 13.244-17.445 30.188-17.445 48.635 0 42.287 34.402 76.69 76.689 76.69 15.042 0 29.605-4.356 42.116-12.597 3.459-2.278 4.416-6.93 2.138-10.389-2.28-3.459-6.932-4.416-10.39-2.138-10.054 6.623-21.764 10.123-33.864 10.123-34.016 0-61.689-27.674-61.689-61.69 0-34.011 27.674-61.68 61.689-61.68 34.017 0 61.69 27.669 61.69 61.68 0 11.477-3.174 22.675-9.179 32.385-2.179 3.523-1.089 8.145 2.435 10.324 3.519 2.176 8.143 1.089 10.323-2.434 7.472-12.083 11.421-26.009 11.421-40.275.002-42.28-34.402-76.679-76.689-76.679zm.519-129.992c17.149 0 31.102 13.952 31.102 31.102s-13.952 31.101-31.102 31.101c-17.148 0-31.101-13.952-31.101-31.101s13.952-31.102 31.101-31.102zm-363.734 43.361c-6.76 0-12.26-5.5-12.26-12.26 0-6.761 5.5-12.261 12.26-12.261 6.761 0 12.261 5.5 12.261 12.261 0 6.76-5.5 12.26-12.261 12.26zm363.734-236.73c22.841 0 41.423 18.582 41.423 41.422s-18.582 41.422-41.423 41.422c-22.84 0-41.422-18.582-41.422-41.422s18.582-41.422 41.422-41.422zm-359.139 103.109c-34.015 0-61.687-27.672-61.687-61.686s27.672-61.687 61.687-61.687 61.687 27.672 61.687 61.687-27.673 61.686-61.687 61.686zm220.992 296.936c0 22.84-18.582 41.422-41.423 41.422-22.84 0-41.422-18.582-41.422-41.422s18.582-41.422 41.422-41.422c22.841-.001 41.423 18.581 41.423 41.422zm-41.423-98.54c-42.478 0-77.035-34.558-77.035-77.035s34.558-77.036 77.035-77.036 77.035 34.558 77.035 77.036-34.557 77.035-77.035 77.035z" fill="#4078fc" data-original="#000000" style="" class=""/><path d="m114.585 386.812-18.038 18.03c-5.735-3.689-12.55-5.84-19.861-5.84-20.306 0-36.825 16.52-36.825 36.826s16.52 36.825 36.825 36.825 36.826-16.52 36.826-36.825c0-7.579-2.303-14.63-6.245-20.492l17.922-17.914c2.929-2.928 2.931-7.677.002-10.607-2.928-2.931-7.676-2.93-10.606-.003zm-37.898 70.841c-12.035 0-21.825-9.791-21.825-21.825s9.791-21.826 21.825-21.826 21.826 9.791 21.826 21.826-9.792 21.825-21.826 21.825z" fill="#4078fc" data-original="#000000" style="" class=""/></g></g></svg>
