<?xml version="1.0"?>
<svg xmlns="http://www.w3.org/2000/svg" xmlns:xlink="http://www.w3.org/1999/xlink" xmlns:svgjs="http://svgjs.com/svgjs" version="1.1" width="512" height="512" x="0" y="0" viewBox="0 0 64 64" style="enable-background:new 0 0 512 512" xml:space="preserve" class=""><g><g xmlns="http://www.w3.org/2000/svg" id="distribute-junction-data-dollar-currency"><path d="m10 22h6v2h-6z" fill="#4078fc" data-original="#000000" style="" class=""/><path d="m10 26h6v2h-6z" fill="#4078fc" data-original="#000000" style="" class=""/><path d="m54 41v-9h5a3 3 0 0 0 3-3v-12a3 3 0 0 0 -3-3h-12a3 3 0 0 0 -3 3v12a3 3 0 0 0 3 3h5v9a1 1 0 0 1 -1 1h-3.527a16.005 16.005 0 0 0 -14.473-11.949v-10.051h5a3 3 0 0 0 3-3v-12a3 3 0 0 0 -3-3h-12a3 3 0 0 0 -3 3v12a3 3 0 0 0 3 3h5v10.051a16.005 16.005 0 0 0 -14.473 11.949h-3.527a1 1 0 0 1 -1-1v-9h5a3 3 0 0 0 3-3v-12a3 3 0 0 0 -3-3h-12a3 3 0 0 0 -3 3v12a3 3 0 0 0 3 3h5v9a3 3 0 0 0 3 3h3.139a15.576 15.576 0 0 0 2.026 10h-8.165a1 1 0 0 0 -1 1v1h-3a1 1 0 0 0 -.8.4l-3 4a1 1 0 0 0 .8 1.6h58a1 1 0 0 0 .8-1.6l-3-4a1 1 0 0 0 -.8-.4h-3v-1a1 1 0 0 0 -1-1h-8.165a15.576 15.576 0 0 0 2.026-10h3.139a3 3 0 0 0 3-3zm-7-25h12a1 1 0 0 1 1 1v1h-14v-1a1 1 0 0 1 1-1zm-1 13v-9h14v9a1 1 0 0 1 -1 1h-12a1 1 0 0 1 -1-1zm-20-25h12a1 1 0 0 1 1 1v1h-14v-1a1 1 0 0 1 1-1zm-1 13v-9h14v9a1 1 0 0 1 -1 1h-12a1 1 0 0 1 -1-1zm-20-1h12a1 1 0 0 1 1 1v1h-14v-1a1 1 0 0 1 1-1zm-1 13v-9h14v9a1 1 0 0 1 -1 1h-12a1 1 0 0 1 -1-1zm1 31 1.5-2h3.5a1 1 0 0 0 1-1v-1h8.53a16.123 16.123 0 0 0 4.741 4zm48-4v1a1 1 0 0 0 1 1h3.5l1.5 2h-19.271a16.123 16.123 0 0 0 4.741-4zm-21 4a14 14 0 1 1 14-14 14.015 14.015 0 0 1 -14 14z" fill="#4078fc" data-original="#000000" style="" class=""/><path d="m6 22h2v2h-2z" fill="#4078fc" data-original="#000000" style="" class=""/><path d="m6 26h2v2h-2z" fill="#4078fc" data-original="#000000" style="" class=""/><path d="m52 22h6v2h-6z" fill="#4078fc" data-original="#000000" style="" class=""/><path d="m52 26h6v2h-6z" fill="#4078fc" data-original="#000000" style="" class=""/><path d="m48 22h2v2h-2z" fill="#4078fc" data-original="#000000" style="" class=""/><path d="m48 26h2v2h-2z" fill="#4078fc" data-original="#000000" style="" class=""/><path d="m31 10h6v2h-6z" fill="#4078fc" data-original="#000000" style="" class=""/><path d="m31 14h6v2h-6z" fill="#4078fc" data-original="#000000" style="" class=""/><path d="m27 10h2v2h-2z" fill="#4078fc" data-original="#000000" style="" class=""/><path d="m27 14h2v2h-2z" fill="#4078fc" data-original="#000000" style="" class=""/><path d="m30 40h4a2 2 0 0 1 2 2h2a4 4 0 0 0 -4-4h-1v-2h-2v2h-1a4 4 0 0 0 -4 4v1a4 4 0 0 0 4 4h4a2 2 0 0 1 2 2v1a2 2 0 0 1 -2 2h-4a2 2 0 0 1 -2-2h-2a4 4 0 0 0 4 4h1v2h2v-2h1a4 4 0 0 0 4-4v-1a4 4 0 0 0 -4-4h-4a2 2 0 0 1 -2-2v-1a2 2 0 0 1 2-2z" fill="#4078fc" data-original="#000000" style="" class=""/></g></g></svg>
