<?xml version="1.0"?>
<svg xmlns="http://www.w3.org/2000/svg" xmlns:xlink="http://www.w3.org/1999/xlink" xmlns:svgjs="http://svgjs.com/svgjs" version="1.1" width="512" height="512" x="0" y="0" viewBox="0 0 511.965 511.965" style="enable-background:new 0 0 512 512" xml:space="preserve" class=""><g><g xmlns="http://www.w3.org/2000/svg"><path d="m376.082 140.137c-20.214-12.787-44.68-16.418-68.885-10.222-20.754 5.311-38.918 17.428-51.316 33.935-12.922-17.153-32.125-29.444-54.211-34.389-24.917-5.58-50.4-.711-69.913 13.355-7.866 5.671.904 17.837 8.771 12.168 16.037-11.56 37.128-15.526 57.864-10.885 22.033 4.933 40.597 18.466 50.932 37.129 2.805 5.066 10.317 5.066 13.122 0 9.996-18.051 27.662-31.457 48.468-36.781 59.345-14.222 104.844 37.35 89.652 106.793-16.488 68.394-73.407 118.954-139.132 150.803-3.527 1.712-7.572 1.711-11.098 0-34.674-16.83-64.012-37.307-87.198-60.863-41.615-42.856-70.586-103.391-45.419-158.544 4.234-8.724-9.261-15.274-13.494-6.55-11.273 23.226-14.045 51.897-7.605 78.662 17.435 72.754 77.412 127.07 147.167 160.79 7.689 3.731 16.508 3.731 24.197 0 69.727-33.686 129.757-88.064 147.167-160.789 9.042-37.578.673-89.472-39.069-114.612z" fill="#4078fc" data-original="#000000" style="" class=""/><path d="m347.714 32.806c3.561 1.494 8.312-.481 9.79-4.07 3.474-9.319-9.768-14.775-13.86-5.72-1.58 3.83.24 8.21 4.07 9.79z" fill="#4078fc" data-original="#000000" style="" class=""/><path d="m310.804 20.976c3.686.891 8.147-1.915 9.01-5.6.94-4.03-1.57-8.06-5.6-9-4.04-.94-8.07 1.56-9.01 5.6-.94 4.03 1.57 8.06 5.6 9z" fill="#4078fc" data-original="#000000" style="" class=""/><path d="m233.054 15.726c4 0 7.846-4.204 7.48-8.18-.37-4.12-4.02-7.16-8.15-6.79v.01c-4.12.37-7.16 4.02-6.79 8.14.36 3.9 3.63 6.82 7.46 6.82z" fill="#4078fc" data-original="#000000" style="" class=""/><path d="m272.494 15.256c4.083.302 7.721-2.829 7.99-6.97.29-4.13-2.84-7.71-6.97-7.99-4.13-.28-7.71 2.84-7.99 6.97s2.84 7.71 6.97 7.99z" fill="#4078fc" data-original="#000000" style="" class=""/><path d="m120.834 54.566c1.4 0 2.81-.39 4.07-1.21 3.48-2.25 4.47-6.9 2.21-10.37-2.25-3.48-6.9-4.47-10.37-2.21-3.48 2.25-4.47 6.9-2.21 10.37 1.44 2.22 3.84 3.42 6.3 3.42z" fill="#4078fc" data-original="#000000" style="" class=""/><path d="m193.704 22.536c4.419 0 8.393-4.998 7.27-9.37-1.04-4.01-5.12-6.43-9.14-5.39-4.01 1.03-6.42 5.12-5.39 9.13.87 3.39 3.92 5.63 7.26 5.63z" fill="#4078fc" data-original="#000000" style="" class=""/><path d="m20.014 176.906c3.616 1.304 8.277-.79 9.63-4.45 1.43-3.89-.56-8.2-4.45-9.63s-8.2.56-9.63 4.45.56 8.2 4.45 9.63z" fill="#4078fc" data-original="#000000" style="" class=""/><path d="m155.964 35.606c1.01 0 2.03-.21 3.02-.64 3.79-1.67 5.51-6.09 3.84-9.88s-6.09-5.52-9.88-3.85c-7.448 3.282-4.678 14.37 3.02 14.37z" fill="#4078fc" data-original="#000000" style="" class=""/><path d="m497.544 314.326c-3.99-1.1-8.12 1.25-9.21 5.25h-.01c-1.09 3.99 1.26 8.12 5.25 9.22 4.192 1.128 7.709-1.397 9.22-5.26 1.1-3.99-1.26-8.12-5.25-9.21z" fill="#4078fc" data-original="#000000" style="" class=""/><path d="m491.404 204.356c.76 3.51 3.87 5.91 7.32 5.91 4.312 0 8.273-4.799 7.34-9.09-.88-4.05-4.87-6.62-8.92-5.74s-6.62 4.87-5.74 8.92z" fill="#4078fc" data-original="#000000" style="" class=""/><path d="m510.434 283.086c.44-4.12-2.55-7.81-6.66-8.25-4.12-.44-7.82 2.55-8.25 6.67-.44 4.11 2.54 7.81 6.66 8.25 3.743.413 7.856-2.973 8.25-6.67z" fill="#4078fc" data-original="#000000" style="" class=""/><path d="m10.464 215.716c3.715.695 8.071-2.214 8.79-5.95.78-4.07-1.88-8-5.94-8.78-4.07-.79-8.01 1.87-8.79 5.94-.78 4.07 1.88 8 5.94 8.79z" fill="#4078fc" data-original="#000000" style="" class=""/><path d="m503.634 234.866c-4.14.21-7.31 3.75-7.09 7.88.21 4 3.52 7.11 7.48 7.11 3.904 0 7.705-4.059 7.5-7.9-.22-4.14-3.75-7.31-7.89-7.09z" fill="#4078fc" data-original="#000000" style="" class=""/><path d="m413.474 73.356c3.632 2.661 7.159 2.405 10.58-.77 2.7-3.13 2.36-7.87-.77-10.58s-7.87-2.37-10.58.77c-2.71 3.13-2.37 7.87.77 10.58z" fill="#4078fc" data-original="#000000" style="" class=""/><path d="m487.134 172.046c4.782 0 8.786-5.673 6.98-10.26-1.52-3.85-5.88-5.74-9.73-4.22-3.86 1.52-5.75 5.87-4.23 9.73 1.17 2.95 3.99 4.75 6.98 4.75z" fill="#4078fc" data-original="#000000" style="" class=""/><path d="m446.414 103.646c5.914 0 9.612-7.706 5.74-12.32-2.66-3.17-7.39-3.59-10.57-.93-3.17 2.66-3.59 7.39-.93 10.57 1.49 1.77 3.61 2.68 5.76 2.68z" fill="#4078fc" data-original="#000000" style="" class=""/><path d="m382.224 50.426c3.376 2.085 8.238.918 10.32-2.44 2.18-3.53 1.08-8.15-2.44-10.33-3.53-2.17-8.15-1.07-10.32 2.45-2.18 3.52-1.08 8.15 2.44 10.32z" fill="#4078fc" data-original="#000000" style="" class=""/><path d="m469.534 136.206c1.31 0 2.63-.34 3.84-1.06 8.343-5.381 1.023-17.669-7.68-12.88-6.614 3.939-3.343 13.94 3.84 13.94z" fill="#4078fc" data-original="#000000" style="" class=""/><path d="m66.474 94.656c-3.24-2.59-7.95-2.07-10.54 1.17-2.59 3.23-2.07 7.95 1.17 10.54 3.674 2.525 7.187 2.135 10.54-1.17 2.59-3.23 2.06-7.95-1.17-10.54z" fill="#4078fc" data-original="#000000" style="" class=""/><path d="m219.034 493.896c-4.09-.63-7.92 2.18-8.55 6.28-.63 4.09 2.18 7.92 6.27 8.55 4.006.65 7.949-2.164 8.56-6.28.62-4.09-2.19-7.92-6.28-8.55z" fill="#4078fc" data-original="#000000" style="" class=""/><path d="m181.354 484.956c-3.94-1.28-8.17.87-9.45 4.81s.87 8.17 4.81 9.45c3.636 1.181 8.253-1.139 9.45-4.81 1.28-3.94-.87-8.18-4.81-9.45z" fill="#4078fc" data-original="#000000" style="" class=""/><path d="m112.684 449.556c-3.33-2.46-8.03-1.76-10.49 1.57s-1.76 8.03 1.57 10.49c3.712 2.389 7.208 1.866 10.49-1.57 2.46-3.33 1.76-8.02-1.57-10.49z" fill="#4078fc" data-original="#000000" style="" class=""/><path d="m145.584 470.036c-3.68-1.9-8.2-.46-10.1 3.23-1.9 3.68-.46 8.2 3.23 10.1 3.471 1.799 8.304.254 10.1-3.23 1.9-3.68.45-8.2-3.23-10.1z" fill="#4078fc" data-original="#000000" style="" class=""/><path d="m333.844 483.806c-3.92 1.34-6.01 5.61-4.67 9.53 1.328 3.957 5.713 5.993 9.52 4.67 3.92-1.34 6.01-5.6 4.67-9.52s-5.6-6.01-9.52-4.68z" fill="#4078fc" data-original="#000000" style="" class=""/><path d="m296.294 493.326c-4.09.69-6.84 4.56-6.15 8.64.671 4.098 4.647 6.864 8.64 6.15 4.08-.69 6.84-4.56 6.15-8.64-.69-4.09-4.56-6.84-8.64-6.15z" fill="#4078fc" data-original="#000000" style="" class=""/><path d="m257.684 496.686c-4.15.03-7.48 3.42-7.45 7.56.03 4.12 3.38 7.44 7.5 7.44h.05c4.15-.03 7.48-3.41 7.45-7.55s-3.41-7.48-7.55-7.45z" fill="#4078fc" data-original="#000000" style="" class=""/><path d="m7.274 255.546h.23c4.04 0 7.37-3.21 7.49-7.27.13-4.14-3.13-7.6-7.27-7.73-4.14-.12-7.6 3.13-7.72 7.28-.13 4.14 3.13 7.59 7.27 7.72z" fill="#4078fc" data-original="#000000" style="" class=""/><path d="m39.024 360.946c-1.82-3.72-6.3-5.27-10.03-3.46-3.72 1.81-5.28 6.3-3.46 10.02 1.718 3.556 6.507 5.161 10.02 3.47 3.73-1.81 5.28-6.3 3.47-10.02z" fill="#4078fc" data-original="#000000" style="" class=""/><path d="m24.954 324.866c-1.19-3.97-5.37-6.23-9.33-5.04-3.97 1.19-6.23 5.37-5.04 9.34 1.092 3.657 5.688 6.158 9.33 5.03 3.97-1.19 6.23-5.36 5.04-9.33z" fill="#4078fc" data-original="#000000" style="" class=""/><path d="m94.724 66.386c-6.925-7.137-17.522 2.487-11.12 10.07 3.459 3.096 6.989 3.27 10.59.52 3.08-2.78 3.31-7.52.53-10.59z" fill="#4078fc" data-original="#000000" style="" class=""/><path d="m16.894 286.976c-.53-4.1-4.29-7-8.4-6.47s-7.01 4.29-6.47 8.4c-.01 0-.01 0-.01 0 .5 3.78 3.72 6.54 7.43 6.54 4.094 0 7.976-4.394 7.45-8.47z" fill="#4078fc" data-original="#000000" style="" class=""/><path d="m72.874 423.966c-2.97 2.89-3.02 7.64-.13 10.61 3.521 2.959 7.058 2.999 10.61.12 2.96-2.9 3.02-7.64.12-10.61-2.89-2.96-7.64-3.01-10.6-.12z" fill="#4078fc" data-original="#000000" style="" class=""/><path d="m43.084 127.076c-3.6-2.04-8.18-.77-10.22 2.84-2.04 3.6-.77 8.18 2.84 10.22 3.43 1.934 8.277.594 10.22-2.84 2.04-3.61.77-8.18-2.84-10.22z" fill="#4078fc" data-original="#000000" style="" class=""/><path d="m48.254 392.486c-3.39 2.39-4.2 7.07-1.81 10.45 3.231 3.507 6.714 4.113 10.45 1.82 3.38-2.39 4.2-7.07 1.81-10.46-2.39-3.38-7.06-4.19-10.45-1.81z" fill="#4078fc" data-original="#000000" style="" class=""/><path d="m439.673 356.962c-39.817 0-72.211 32.394-72.211 72.211-.659 53.187 58.172 89.155 105.144 64.258 8.627-4.429 1.775-17.774-6.852-13.344-37.213 19.716-83.817-8.78-83.292-50.915 0-31.546 25.664-57.211 57.21-57.211 42.268-.526 70.763 46.359 50.769 83.578-4.478 8.601 8.827 15.528 13.305 6.927 25.124-47.267-10.511-105.965-64.073-105.504z" fill="#4078fc" data-original="#000000" style="" class=""/><path d="m439.673 466.645c4.142 0 7.5-3.358 7.5-7.5v-22.471h22.471c9.931-.344 9.923-14.659 0-15h-22.471v-22.472c-.344-9.931-14.659-9.923-15 0v22.472h-22.472c-9.931.344-9.923 14.659 0 15h22.472v22.471c0 4.142 3.358 7.5 7.5 7.5z" fill="#4078fc" data-original="#000000" style="" class=""/></g></g></svg>
