<?xml version="1.0"?>
<svg xmlns="http://www.w3.org/2000/svg" xmlns:xlink="http://www.w3.org/1999/xlink" xmlns:svgjs="http://svgjs.com/svgjs" version="1.1" width="512" height="512" x="0" y="0" viewBox="0 0 480 480" style="enable-background:new 0 0 512 512" xml:space="preserve" class=""><g><path xmlns="http://www.w3.org/2000/svg" d="m472 0h-464c-4.417969 0-8 3.582031-8 8v176c0 4.417969 3.582031 8 8 8h112v232c0 4.417969 3.582031 8 8 8h224c4.417969 0 8-3.582031 8-8v-232h112c4.417969 0 8-3.582031 8-8v-176c0-4.417969-3.582031-8-8-8zm-64 112c4.417969 0 8 3.582031 8 8s-3.582031 8-8 8h-48v-16zm-233 240h-39v-40h15c13.253906 0 24 10.746094 24 24zm-39 16h208v16h-208zm207-16h-39v-16c0-13.253906 10.746094-24 24-24h15zm1-56h-16c-22.082031.027344-39.972656 17.917969-40 40v16h-97v-16c-.027344-22.082031-17.917969-39.972656-40-40h-15v-184h208zm-224-168h-48c-4.417969 0-8-3.582031-8-8s3.582031-8 8-8h48zm16 288v-16h208v16zm328-240h-104v-32h48c13.253906 0 24-10.746094 24-24s-10.746094-24-24-24h-336c-13.253906 0-24 10.746094-24 24s10.746094 24 24 24h48v32h-104v-160h448zm0 0" fill="#4078fc" data-original="#000000" style="" class=""/><path xmlns="http://www.w3.org/2000/svg" d="m240 288c44.183594 0 80-35.816406 80-80s-35.816406-80-80-80-80 35.816406-80 80c.046875 44.164062 35.835938 79.953125 80 80zm0-144c35.347656 0 64 28.652344 64 64s-28.652344 64-64 64-64-28.652344-64-64c.039062-35.328125 28.671875-63.960938 64-64zm0 0" fill="#4078fc" data-original="#000000" style="" class=""/><path xmlns="http://www.w3.org/2000/svg" d="m233.601562 76.800781c1.507813 2.011719 3.878907 3.199219 6.398438 3.199219s4.890625-1.1875 6.398438-3.199219l24-32c1.820312-2.425781 2.113281-5.667969.757812-8.378906s-4.125-4.421875-7.15625-4.421875h-48c-3.03125 0-5.800781 1.710938-7.15625 4.421875s-1.0625 5.953125.757812 8.378906zm14.398438-28.800781-8 10.664062-8-10.664062zm0 0" fill="#4078fc" data-original="#000000" style="" class=""/><path xmlns="http://www.w3.org/2000/svg" d="m202.199219 218.519531c3.035156 7.914063 10.527343 13.230469 19 13.480469 5.953125-.070312 11.566406-2.78125 15.320312-7.398438l19.199219-22.929687c2.304688-2.734375 5.601562-2.007813 7.503906 2.496094 1.027344 2.640625.953125 5.582031-.207031 8.167969-.582031 1.941406-2.234375 3.371093-4.238281 3.664062-4.417969 0-8 3.582031-8 8s3.582031 8 8 8c8.648437-.316406 16.242187-5.84375 19.199218-13.976562.269532-.65625.398438-1.351563.617188-2.023438h9.40625v-16h-9.414062c-.265626-.839844-.441407-1.695312-.800782-2.519531-3.035156-7.910157-10.519531-13.222657-18.984375-13.480469-5.953125.070312-11.566406 2.78125-15.320312 7.398438l-19.199219 22.929687c-2.304688 2.742187-5.601562 2-7.503906-2.496094-1.027344-2.640625-.953125-5.582031.207031-8.167969.578125-1.933593 2.21875-3.363281 4.214844-3.664062 4.417969 0 8-3.582031 8-8s-3.582031-8-8-8c-8.648438.316406-16.242188 5.84375-19.199219 13.976562-.273438.65625-.398438 1.351563-.617188 2.023438h-9.382812v16h9.414062c.265626.800781.441407 1.695312.785157 2.519531zm0 0" fill="#4078fc" data-original="#000000" style="" class=""/></g></svg>
